<?xml version="1.0" encoding="utf-8"?>
<svg version="1.1" xmlns:xlink="http://www.w3.org/1999/xlink" width="32px" height="32px" preserveAspectRatio="xMinYMid meet" viewBox="3151 1473  32 30" xmlns="http://www.w3.org/2000/svg">
  <path d="M 2638 1613  L 2900 1613  A 5 5 0 0 0 2905 1608 L 2905 1493  A 5 5 0 0 1 2910 1488 L 3169 1488  " stroke-width="8" stroke="#6ddb29" fill="none" />
  <path d="M 2636.5 1606.5  A 6.5 6.5 0 0 0 2630 1613 A 6.5 6.5 0 0 0 2636.5 1619.5 A 6.5 6.5 0 0 0 2643 1613 A 6.5 6.5 0 0 0 2636.5 1606.5 Z M 3165 1503.4  L 3181 1488  L 3165 1472.6  L 3165 1503.4  Z " fill-rule="nonzero" fill="#6ddb29" stroke="none" />
</svg>