<?xml version="1.0" encoding="utf-8"?>
<svg version="1.1" xmlns:xlink="http://www.w3.org/1999/xlink" width="725px" height="16px" preserveAspectRatio="xMinYMid meet" viewBox="4462 1598  725 14" xmlns="http://www.w3.org/2000/svg">
  <path d="M 4470 1605  L 5174 1605  A 5 5 0 0 1 5179 1610 L 5179 2520  A 5 5 0 0 0 5184 2525 L 5885 2525  " stroke-width="8" stroke="#6ddb29" fill="none" />
  <path d="M 4468.5 1598.5  A 6.5 6.5 0 0 0 4462 1605 A 6.5 6.5 0 0 0 4468.5 1611.5 A 6.5 6.5 0 0 0 4475 1605 A 6.5 6.5 0 0 0 4468.5 1598.5 Z M 5881 2540.4  L 5897 2525  L 5881 2509.6  L 5881 2540.4  Z " fill-rule="nonzero" fill="#6ddb29" stroke="none" />
</svg>