<?xml version="1.0" encoding="utf-8"?>
<svg version="1.1" xmlns:xlink="http://www.w3.org/1999/xlink" width="16px" height="1065px" preserveAspectRatio="xMidYMin meet" viewBox="5757 1468  14 1065" xmlns="http://www.w3.org/2000/svg">
  <path d="M 5975 1476  L 5769 1476  A 5 5 0 0 0 5764 1481 L 5764 2520  A 5 5 0 0 0 5769 2525 L 5885 2525  " stroke-width="8" stroke="#6ddb29" fill="none" />
  <path d="M 5976.5 1469.5  A 6.5 6.5 0 0 0 5970 1476 A 6.5 6.5 0 0 0 5976.5 1482.5 A 6.5 6.5 0 0 0 5983 1476 A 6.5 6.5 0 0 0 5976.5 1469.5 Z M 5881 2540.4  L 5897 2525  L 5881 2509.6  L 5881 2540.4  Z " fill-rule="nonzero" fill="#6ddb29" stroke="none" />
</svg>