<?xml version="1.0" encoding="utf-8"?>
<svg version="1.1" xmlns:xlink="http://www.w3.org/1999/xlink" width="32px" height="32px" preserveAspectRatio="xMinYMid meet" viewBox="5966 2118  32 30" xmlns="http://www.w3.org/2000/svg">
  <path d="M 6463 2112  L 6463 2098  A 5 5 0 0 0 6458 2093 L 6006.66666666667 2093  A 5 5 0 0 0 6001.66666666667 2098 L 6001.66666666667 2128  A 5 5 0 0 1 5996.66666666667 2133 L 5980 2133  " stroke-width="8" stroke="#6ddb29" fill="none" />
  <path d="M 6463 2107  A 6.5 6.5 0 0 0 6456.5 2113.5 A 6.5 6.5 0 0 0 6463 2120 A 6.5 6.5 0 0 0 6469.5 2113.5 A 6.5 6.5 0 0 0 6463 2107 Z M 5984 2117.6  L 5968 2133  L 5984 2148.4  L 5984 2117.6  Z " fill-rule="nonzero" fill="#6ddb29" stroke="none" />
</svg>