<?xml version="1.0" encoding="utf-8"?>
<svg version="1.1" xmlns:xlink="http://www.w3.org/1999/xlink" width="402px" height="76px" xmlns="http://www.w3.org/2000/svg">
  <g transform="matrix(1 0 0 1 0 -160 )">
    <path d="M 0 67  L 0 32  C 0 26.96  3.96000000000004 23  9 23  L 62.8093385214011 23  L 74.416961130742 23  L 88.1011673151752 23  L 182.899999999999 23  L 198.931034482759 0  L 213.84679089027 23  L 393 23  C 398.04 23  402 26.96  402 32  L 402 67  C 402 72.04  398.04 76  393 76  L 9 76  C 3.96000000000004 76  0 72.04  0 67  Z " fill-rule="nonzero" fill="#f0df6f" stroke="none" transform="matrix(1 0 0 1 0 160 )" />
  </g>
</svg>