<?xml version="1.0" encoding="utf-8"?>
<svg version="1.1" xmlns:xlink="http://www.w3.org/1999/xlink" width="402px" height="76px" xmlns="http://www.w3.org/2000/svg">
  <g transform="matrix(1 0 0 1 -2 -160 )">
    <path d="M 0 67  L 0 32  C 0 26.96  3.96000000000004 23  9 23  L 62.8093385214015 23  L 74.4169611307425 23  L 88.1011673151752 23  L 107.775330396476 23  L 184.028776978421 23  L 204.104258443465 23  L 221.798561151082 23  L 301.78523489933 23  L 314.872483221475 0  L 330.308724832215 23  L 393 23  C 398.04 23  402 26.96  402 32  L 402 67  C 402 72.04  398.04 76  393 76  L 9 76  C 3.96000000000004 76  0 72.04  0 67  Z " fill-rule="nonzero" fill="#f0df6f" stroke="none" transform="matrix(1 0 0 1 2 160 )" />
  </g>
</svg>