<?xml version="1.0" encoding="utf-8"?>
<svg version="1.1" xmlns:xlink="http://www.w3.org/1999/xlink" width="16px" height="513px" preserveAspectRatio="xMidYMin meet" viewBox="7324 2252  14 513" xmlns="http://www.w3.org/2000/svg">
  <path d="M 7086 2255  A 5 5 0 0 0 7091 2260 L 7326 2260  A 5 5 0 0 1 7331 2265 L 7331 2752  A 5 5 0 0 0 7336 2757 L 7634 2757  " stroke-width="8" stroke="#6ddb29" fill="none" />
  <path d="M 7086.22331755437 2249.97760103331  A 6.5 6.5 0 0 0 7079.72331755437 2256.47760103331 A 6.5 6.5 0 0 0 7086.22331755437 2262.97760103331 A 6.5 6.5 0 0 0 7092.72331755437 2256.47760103331 A 6.5 6.5 0 0 0 7086.22331755437 2249.97760103331 Z M 7630 2772.4  L 7646 2757  L 7630 2741.6  L 7630 2772.4  Z " fill-rule="nonzero" fill="#6ddb29" stroke="none" />
</svg>