<?xml version="1.0" encoding="utf-8"?>
<svg version="1.1" xmlns:xlink="http://www.w3.org/1999/xlink" width="32px" height="33px" preserveAspectRatio="xMidYMin meet" viewBox="3416 2967  30 33" xmlns="http://www.w3.org/2000/svg">
  <path d="M 3431 2982  L 3431 2975  A 5 5 0 0 1 3436 2970 L 3485 2970  A 5 5 0 0 1 3490 2975 L 3490 3705  A 5 5 0 0 0 3495 3710 L 3537 3710  " stroke-width="8" stroke="#6ddb29" fill="none" />
  <path d="M 3431 2977  A 6.5 6.5 0 0 0 3424.5 2983.5 A 6.5 6.5 0 0 0 3431 2990 A 6.5 6.5 0 0 0 3437.5 2983.5 A 6.5 6.5 0 0 0 3431 2977 Z M 3533 3725.4  L 3549 3710  L 3533 3694.6  L 3533 3725.4  Z " fill-rule="nonzero" fill="#6ddb29" stroke="none" />
</svg>