<?xml version="1.0" encoding="utf-8"?>
<svg version="1.1" xmlns:xlink="http://www.w3.org/1999/xlink" width="322px" height="16px" preserveAspectRatio="xMinYMid meet" viewBox="5569 2808  322 14" xmlns="http://www.w3.org/2000/svg">
  <path d="M 5271 2880  L 5572 2880  A 5 5 0 0 0 5577 2875 L 5577 2820  A 5 5 0 0 1 5582 2815 L 5879 2815  " stroke-width="8" stroke="#6ddb29" fill="none" />
  <path d="M 5269.5 2873.5  A 6.5 6.5 0 0 0 5263 2880 A 6.5 6.5 0 0 0 5269.5 2886.5 A 6.5 6.5 0 0 0 5276 2880 A 6.5 6.5 0 0 0 5269.5 2873.5 Z M 5875 2830.4  L 5891 2815  L 5875 2799.6  L 5875 2830.4  Z " fill-rule="nonzero" fill="#6ddb29" stroke="none" />
</svg>