<?xml version="1.0" encoding="utf-8"?>
<svg version="1.1" xmlns:xlink="http://www.w3.org/1999/xlink" width="16px" height="63px" preserveAspectRatio="xMidYMin meet" viewBox="8323 2805  14 63" xmlns="http://www.w3.org/2000/svg">
  <path d="M 7942 2860  L 8325 2860  A 5 5 0 0 0 8330 2855 L 8330 2818  A 5 5 0 0 1 8335 2813 L 8715 2813  " stroke-width="8" stroke="#6ddb29" fill="none" />
  <path d="M 7940.5 2853.5  A 6.5 6.5 0 0 0 7934 2860 A 6.5 6.5 0 0 0 7940.5 2866.5 A 6.5 6.5 0 0 0 7947 2860 A 6.5 6.5 0 0 0 7940.5 2853.5 Z M 8711 2828.4  L 8727 2813  L 8711 2797.6  L 8711 2828.4  Z " fill-rule="nonzero" fill="#6ddb29" stroke="none" />
</svg>