<?xml version="1.0" encoding="utf-8"?>
<svg version="1.1" xmlns:xlink="http://www.w3.org/1999/xlink" width="33px" height="32px" preserveAspectRatio="xMinYMid meet" viewBox="8047 5882  33 30" xmlns="http://www.w3.org/2000/svg">
  <path d="M 8065 5897  L 8386 5897  A 5 5 0 0 0 8391 5892 L 8391 5482  A 5 5 0 0 1 8396 5477 L 8854 5477  " stroke-width="8" stroke="#6ddb29" fill="none" />
  <path d="M 8063.5 5890.5  A 6.5 6.5 0 0 0 8057 5897 A 6.5 6.5 0 0 0 8063.5 5903.5 A 6.5 6.5 0 0 0 8070 5897 A 6.5 6.5 0 0 0 8063.5 5890.5 Z M 8850 5492.4  L 8866 5477  L 8850 5461.6  L 8850 5492.4  Z " fill-rule="nonzero" fill="#6ddb29" stroke="none" />
</svg>