<?xml version="1.0" encoding="utf-8"?>
<svg version="1.1" xmlns:xlink="http://www.w3.org/1999/xlink" width="201px" height="16px" preserveAspectRatio="xMinYMid meet" viewBox="6462 4221  201 14" xmlns="http://www.w3.org/2000/svg">
  <path d="M 6286 4659  L 6465 4659  A 5 5 0 0 0 6470 4654 L 6470 4233  A 5 5 0 0 1 6475 4228 L 6651 4228  " stroke-width="8" stroke="#6ddb29" fill="none" />
  <path d="M 6284.5 4652.5  A 6.5 6.5 0 0 0 6278 4659 A 6.5 6.5 0 0 0 6284.5 4665.5 A 6.5 6.5 0 0 0 6291 4659 A 6.5 6.5 0 0 0 6284.5 4652.5 Z M 6647 4243.4  L 6663 4228  L 6647 4212.6  L 6647 4243.4  Z " fill-rule="nonzero" fill="#6ddb29" stroke="none" />
</svg>