<?xml version="1.0" encoding="utf-8"?>
<svg version="1.1" xmlns:xlink="http://www.w3.org/1999/xlink" width="402px" height="68px" xmlns="http://www.w3.org/2000/svg">
  <g transform="matrix(1 0 0 1 -13711 -2644 )">
    <path d="M 0 59  L 0 24  C 0 18.96  3.96000000000004 15  9 15  L 62.8093385214011 15  L 74.416961130742 15  L 88.1011673151752 15  L 184.02877697842 15  L 202.374100719427 0.928057553956819  L 221.798561151082 15  L 393 15  C 398.04 15  402 18.96  402 24  L 402 59  C 402 64.04  398.04 68  393 68  L 9 68  C 3.96000000000004 68  0 64.04  0 59  Z " fill-rule="nonzero" fill="#f0df6f" stroke="none" transform="matrix(1 0 0 1 13711 2644 )" />
  </g>
</svg>