<?xml version="1.0" encoding="utf-8"?>
<svg version="1.1" xmlns:xlink="http://www.w3.org/1999/xlink" width="24px" height="24px" xmlns="http://www.w3.org/2000/svg">
  <g transform="matrix(1 0 0 1 -14072 -2835 )">
    <path d="M 14084 2835  C 14090.72 2835  14096 2840.28  14096 2847  C 14096 2853.72  14090.72 2859  14084 2859  C 14077.28 2859  14072 2853.72  14072 2847  C 14072 2840.28  14077.28 2835  14084 2835  Z " fill-rule="nonzero" fill="#ffffff" stroke="none" />
    <path d="M 14084 2835.5  C 14090.44 2835.5  14095.5 2840.56  14095.5 2847  C 14095.5 2853.44  14090.44 2858.5  14084 2858.5  C 14077.56 2858.5  14072.5 2853.44  14072.5 2847  C 14072.5 2840.56  14077.56 2835.5  14084 2835.5  Z " stroke-width="1" stroke="#797979" fill="none" />
  </g>
</svg>