<?xml version="1.0" encoding="utf-8"?>
<svg version="1.1" xmlns:xlink="http://www.w3.org/1999/xlink" width="499px" height="170px" xmlns="http://www.w3.org/2000/svg">
  <g transform="matrix(1 0 0 1 -1642 -2845 )">
    <path d="M 1647 2854  A 4 4 0 0 1 1651 2850 L 2132 2850  A 4 4 0 0 1 2136 2854 L 2136 3006  A 4 4 0 0 1 2132 3010 L 1651 3010  A 4 4 0 0 1 1647 3006 L 1647 2854  Z " fill-rule="nonzero" fill="#ffffff" stroke="none" fill-opacity="0" />
    <path d="M 1644.5 2854  A 6.5 6.5 0 0 1 1651 2847.5 L 2132 2847.5  A 6.5 6.5 0 0 1 2138.5 2854 L 2138.5 3006  A 6.5 6.5 0 0 1 2132 3012.5 L 1651 3012.5  A 6.5 6.5 0 0 1 1644.5 3006 L 1644.5 2854  Z " stroke-width="5" stroke-dasharray="15,5" stroke="#fb0404" fill="none" stroke-dashoffset="0.5" />
  </g>
</svg>