<?xml version="1.0" encoding="utf-8"?>
<svg version="1.1" xmlns:xlink="http://www.w3.org/1999/xlink" width="320px" height="16px" preserveAspectRatio="xMinYMid meet" viewBox="1321 2838  320 14" xmlns="http://www.w3.org/2000/svg">
  <path d="M 1025 3015  L 1324 3015  A 5 5 0 0 0 1329 3010 L 1329 2850  A 5 5 0 0 1 1334 2845 L 1629 2845  " stroke-width="8" stroke="#dbb329" fill="none" />
  <path d="M 1023.5 3008.5  A 6.5 6.5 0 0 0 1017 3015 A 6.5 6.5 0 0 0 1023.5 3021.5 A 6.5 6.5 0 0 0 1030 3015 A 6.5 6.5 0 0 0 1023.5 3008.5 Z M 1625 2860.4  L 1641 2845  L 1625 2829.6  L 1625 2860.4  Z " fill-rule="nonzero" fill="#dbb329" stroke="none" />
</svg>