<?xml version="1.0" encoding="utf-8"?>
<svg version="1.1" xmlns:xlink="http://www.w3.org/1999/xlink" width="220px" height="16px" preserveAspectRatio="xMinYMid meet" viewBox="11056 2967  220 14" xmlns="http://www.w3.org/2000/svg">
  <path d="M 11064 2974  L 11263 2974  A 5 5 0 0 1 11268 2979 L 11268 3851  A 5 5 0 0 1 11263 3856 L 11150 3856  " stroke-width="8" stroke="#dbb329" fill="none" />
  <path d="M 11062.5 2967.5  A 6.5 6.5 0 0 0 11056 2974 A 6.5 6.5 0 0 0 11062.5 2980.5 A 6.5 6.5 0 0 0 11069 2974 A 6.5 6.5 0 0 0 11062.5 2967.5 Z M 11154 3840.6  L 11138 3856  L 11154 3871.4  L 11154 3840.6  Z " fill-rule="nonzero" fill="#dbb329" stroke="none" />
</svg>