<?xml version="1.0" encoding="utf-8"?>
<svg version="1.1" xmlns:xlink="http://www.w3.org/1999/xlink" width="16px" height="411px" preserveAspectRatio="xMidYMin meet" viewBox="10977 2805  14 411" xmlns="http://www.w3.org/2000/svg">
  <path d="M 10918 3213  A 5 5 0 0 1 10923 3208 L 10979 3208  A 5 5 0 0 0 10984 3203 L 10984 2818  A 5 5 0 0 1 10989 2813 L 11536 2813  " stroke-width="8" stroke="#dbb329" fill="none" />
  <path d="M 10918.2233175544 3205.02239896669  A 6.5 6.5 0 0 0 10911.7233175544 3211.52239896669 A 6.5 6.5 0 0 0 10918.2233175544 3218.02239896669 A 6.5 6.5 0 0 0 10924.7233175544 3211.52239896669 A 6.5 6.5 0 0 0 10918.2233175544 3205.02239896669 Z M 11532 2828.4  L 11548 2813  L 11532 2797.6  L 11532 2828.4  Z " fill-rule="nonzero" fill="#dbb329" stroke="none" />
</svg>