<?xml version="1.0" encoding="utf-8"?>
<svg version="1.1" xmlns:xlink="http://www.w3.org/1999/xlink" width="187.720430107527px" height="16px" preserveAspectRatio="xMinYMid meet" viewBox="2075 2905  187.720430107527 14" xmlns="http://www.w3.org/2000/svg">
  <path d="M 2078 2874  A 5 5 0 0 1 2083 2879 L 2083 2907  A 5 5 0 0 0 2088 2912 L 2249.72043010753 2912  A 5 5 0 0 1 2254.72043010753 2917 L 2254.72043010753 3019  A 5 5 0 0 0 2259.72043010753 3024 L 2323 3024  A 5 5 0 0 1 2328 3029 L 2328 3054  " stroke-width="8" stroke="#6ddb29" fill="none" />
  <path d="M 2079.47760103331 2867.72331755437  A 6.5 6.5 0 0 0 2072.97760103331 2874.22331755437 A 6.5 6.5 0 0 0 2079.47760103331 2880.72331755437 A 6.5 6.5 0 0 0 2085.97760103331 2874.22331755437 A 6.5 6.5 0 0 0 2079.47760103331 2867.72331755437 Z M 2312.6 3050  L 2328 3066  L 2343.4 3050  L 2312.6 3050  Z " fill-rule="nonzero" fill="#6ddb29" stroke="none" />
</svg>