<?xml version="1.0" encoding="utf-8"?>
<svg version="1.1" xmlns:xlink="http://www.w3.org/1999/xlink" width="17px" height="16px" preserveAspectRatio="xMinYMid meet" viewBox="1996 3153  17 14" xmlns="http://www.w3.org/2000/svg">
  <path d="M 2005 3384  L 2005 3160.5  A 0.5 0.5 0 0 0 2004.5 3160 A 0.5 0.5 0 0 1 2004 3159.5 L 2004 3159  " stroke-width="8" stroke="#6ddb29" fill="none" />
  <path d="M 2005 3379  A 6.5 6.5 0 0 0 1998.5 3385.5 A 6.5 6.5 0 0 0 2005 3392 A 6.5 6.5 0 0 0 2011.5 3385.5 A 6.5 6.5 0 0 0 2005 3379 Z M 2019.4 3163  L 2004 3147  L 1988.6 3163  L 2019.4 3163  Z " fill-rule="nonzero" fill="#6ddb29" stroke="none" />
</svg>