<?xml version="1.0" encoding="utf-8"?>
<svg version="1.1" xmlns:xlink="http://www.w3.org/1999/xlink" width="23px" height="16px" preserveAspectRatio="xMinYMid meet" viewBox="1182 322  23 14" xmlns="http://www.w3.org/2000/svg">
  <path d="M 1197 329  L 1195 329  A 5 5 0 0 0 1190 334 L 1190 1186  A 5 5 0 0 0 1195 1191 L 1431 1191  " stroke-width="8" stroke="#6ddb29" fill="none" />
  <path d="M 1198.5 322.5  A 6.5 6.5 0 0 0 1192 329 A 6.5 6.5 0 0 0 1198.5 335.5 A 6.5 6.5 0 0 0 1205 329 A 6.5 6.5 0 0 0 1198.5 322.5 Z M 1427 1206.4  L 1443 1191  L 1427 1175.6  L 1427 1206.4  Z " fill-rule="nonzero" fill="#6ddb29" stroke="none" />
</svg>