<?xml version="1.0" encoding="utf-8"?>
<svg version="1.1" xmlns:xlink="http://www.w3.org/1999/xlink" width="32px" height="33px" preserveAspectRatio="xMidYMin meet" viewBox="6425 2059  30 33" xmlns="http://www.w3.org/2000/svg">
  <path d="M 6440 2079  A 5 5 0 0 1 6445 2074 L 6517 2074  A 5 5 0 0 0 6522 2069 L 6522 2005  A 5 5 0 0 1 6527 2000 L 6646 2000  " stroke-width="8" stroke="#dbb329" fill="none" />
  <path d="M 6441.17578906358 2069.27891156381  A 6.5 6.5 0 0 0 6434.67578906358 2075.77891156381 A 6.5 6.5 0 0 0 6441.17578906358 2082.27891156381 A 6.5 6.5 0 0 0 6447.67578906358 2075.77891156381 A 6.5 6.5 0 0 0 6441.17578906358 2069.27891156381 Z M 6642 2015.4  L 6658 2000  L 6642 1984.6  L 6642 2015.4  Z " fill-rule="nonzero" fill="#dbb329" stroke="none" />
</svg>