<?xml version="1.0" encoding="utf-8"?>
<svg version="1.1" xmlns:xlink="http://www.w3.org/1999/xlink" width="97px" height="36px" xmlns="http://www.w3.org/2000/svg">
  <defs>
    <mask fill="white" id="clip1">
      <path d="M 91.9665871121706 35.3076923076923  L 78.8400954653926 35.3076923076923  L 0 35.3076923076923  L 0 10.3846153846154  C 0 4.56923076923071  6.60000000000036 0  15 0  L 77.0414746543784 0  L 96.8571428571431 0  C 96.8571428571431 0  96.9785202863959 9.45933541398925  96.8571428571431 22.5123921424635  C 96.7357654278903 35.5654488709377  91.9665871121706 35.3076923076923  91.9665871121706 35.3076923076923  Z " fill-rule="evenodd" />
    </mask>
  </defs>
  <g transform="matrix(1 0 0 1 -2432 -3091 )">
    <path d="M 91.9665871121706 35.3076923076923  L 78.8400954653926 35.3076923076923  L 0 35.3076923076923  L 0 10.3846153846154  C 0 4.56923076923071  6.60000000000036 0  15 0  L 77.0414746543784 0  L 96.8571428571431 0  C 96.8571428571431 0  96.9785202863959 9.45933541398925  96.8571428571431 22.5123921424635  C 96.7357654278903 35.5654488709377  91.9665871121706 35.3076923076923  91.9665871121706 35.3076923076923  Z " fill-rule="nonzero" fill="#ec7f7f" stroke="none" transform="matrix(1 0 0 1 2432 3091 )" />
    <path d="M 91.9665871121706 35.3076923076923  L 78.8400954653926 35.3076923076923  L 0 35.3076923076923  L 0 10.3846153846154  C 0 4.56923076923071  6.60000000000036 0  15 0  L 77.0414746543784 0  L 96.8571428571431 0  C 96.8571428571431 0  96.9785202863959 9.45933541398925  96.8571428571431 22.5123921424635  C 96.7357654278903 35.5654488709377  91.9665871121706 35.3076923076923  91.9665871121706 35.3076923076923  Z " stroke-width="2" stroke="#797979" fill="none" transform="matrix(1 0 0 1 2432 3091 )" mask="url(#clip1)" />
  </g>
</svg>