<?xml version="1.0" encoding="utf-8"?>
<svg version="1.1" xmlns:xlink="http://www.w3.org/1999/xlink" width="148px" height="16px" preserveAspectRatio="xMinYMid meet" viewBox="2176 3576  148 14" xmlns="http://www.w3.org/2000/svg">
  <path d="M 2184 3597  L 2184 3588  A 5 5 0 0 1 2189 3583 L 2311 3583  A 5 5 0 0 0 2316 3578 L 2316 3231  A 5 5 0 0 1 2321 3226 L 2422 3226  " stroke-width="8" stroke="#dbb329" fill="none" />
  <path d="M 2184 3592  A 6.5 6.5 0 0 0 2177.5 3598.5 A 6.5 6.5 0 0 0 2184 3605 A 6.5 6.5 0 0 0 2190.5 3598.5 A 6.5 6.5 0 0 0 2184 3592 Z M 2418 3241.4  L 2434 3226  L 2418 3210.6  L 2418 3241.4  Z " fill-rule="nonzero" fill="#dbb329" stroke="none" />
</svg>