<?xml version="1.0" encoding="utf-8"?>
<svg version="1.1" xmlns:xlink="http://www.w3.org/1999/xlink" width="32px" height="32px" preserveAspectRatio="xMinYMid meet" viewBox="7620 1946  32 30" xmlns="http://www.w3.org/2000/svg">
  <path d="M 7013 2104  L 7322 2104  A 5 5 0 0 0 7327 2099 L 7327 1966  A 5 5 0 0 1 7332 1961 L 7638 1961  " stroke-width="8" stroke="#dbb329" fill="none" />
  <path d="M 7011.5 2097.5  A 6.5 6.5 0 0 0 7005 2104 A 6.5 6.5 0 0 0 7011.5 2110.5 A 6.5 6.5 0 0 0 7018 2104 A 6.5 6.5 0 0 0 7011.5 2097.5 Z M 7634 1976.4  L 7650 1961  L 7634 1945.6  L 7634 1976.4  Z " fill-rule="nonzero" fill="#dbb329" stroke="none" />
</svg>