<?xml version="1.0" encoding="utf-8"?>
<svg version="1.1" xmlns:xlink="http://www.w3.org/1999/xlink" width="33px" height="32px" preserveAspectRatio="xMinYMid meet" viewBox="10189 1946  33 30" xmlns="http://www.w3.org/2000/svg">
  <path d="M 10207 1961  L 10487 1961  A 5 5 0 0 0 10492 1956 L 10492 1894  A 5 5 0 0 1 10497 1889 L 10774 1889  " stroke-width="8" stroke="#dbb329" fill="none" />
  <path d="M 10205.5 1954.5  A 6.5 6.5 0 0 0 10199 1961 A 6.5 6.5 0 0 0 10205.5 1967.5 A 6.5 6.5 0 0 0 10212 1961 A 6.5 6.5 0 0 0 10205.5 1954.5 Z M 10770 1904.4  L 10786 1889  L 10770 1873.6  L 10770 1904.4  Z " fill-rule="nonzero" fill="#dbb329" stroke="none" />
</svg>