<?xml version="1.0" encoding="utf-8"?>
<svg version="1.1" xmlns:xlink="http://www.w3.org/1999/xlink" width="16px" height="169px" preserveAspectRatio="xMidYMin meet" viewBox="11478 1881  14 169" xmlns="http://www.w3.org/2000/svg">
  <path d="M 11263 1889  L 11480 1889  A 5 5 0 0 1 11485 1894 L 11485 2037  A 5 5 0 0 0 11490 2042 L 11643 2042  " stroke-width="8" stroke="#dbb329" fill="none" />
  <path d="M 11261.5 1882.5  A 6.5 6.5 0 0 0 11255 1889 A 6.5 6.5 0 0 0 11261.5 1895.5 A 6.5 6.5 0 0 0 11268 1889 A 6.5 6.5 0 0 0 11261.5 1882.5 Z M 11639 2057.4  L 11655 2042  L 11639 2026.6  L 11639 2057.4  Z " fill-rule="nonzero" fill="#dbb329" stroke="none" />
</svg>