<?xml version="1.0" encoding="utf-8"?>
<svg version="1.1" xmlns:xlink="http://www.w3.org/1999/xlink" width="126px" height="16px" preserveAspectRatio="xMinYMid meet" viewBox="2322 5442  126 14" xmlns="http://www.w3.org/2000/svg">
  <path d="M 2198 5820  L 2198 5811  A 5 5 0 0 1 2203 5806 L 2325 5806  A 5 5 0 0 0 2330 5801 L 2330 5454  A 5 5 0 0 1 2335 5449 L 2436 5449  " stroke-width="8" stroke="#dbb329" fill="none" />
  <path d="M 2198 5815  A 6.5 6.5 0 0 0 2191.5 5821.5 A 6.5 6.5 0 0 0 2198 5828 A 6.5 6.5 0 0 0 2204.5 5821.5 A 6.5 6.5 0 0 0 2198 5815 Z M 2432 5464.4  L 2448 5449  L 2432 5433.6  L 2432 5464.4  Z " fill-rule="nonzero" fill="#dbb329" stroke="none" />
</svg>