<?xml version="1.0" encoding="utf-8"?>
<svg version="1.1" xmlns:xlink="http://www.w3.org/1999/xlink" width="148px" height="16px" preserveAspectRatio="xMinYMid meet" viewBox="2190 6935  148 14" xmlns="http://www.w3.org/2000/svg">
  <path d="M 2198 6956  L 2198 6947  A 5 5 0 0 1 2203 6942 L 2325 6942  A 5 5 0 0 0 2330 6937 L 2330 6590  A 5 5 0 0 1 2335 6585 L 2436 6585  " stroke-width="8" stroke="#dbb329" fill="none" />
  <path d="M 2198 6951  A 6.5 6.5 0 0 0 2191.5 6957.5 A 6.5 6.5 0 0 0 2198 6964 A 6.5 6.5 0 0 0 2204.5 6957.5 A 6.5 6.5 0 0 0 2198 6951 Z M 2432 6600.4  L 2448 6585  L 2432 6569.6  L 2432 6600.4  Z " fill-rule="nonzero" fill="#dbb329" stroke="none" />
</svg>