<?xml version="1.0" encoding="utf-8"?>
<svg version="1.1" xmlns:xlink="http://www.w3.org/1999/xlink" width="32px" height="32px" preserveAspectRatio="xMinYMid meet" viewBox="3044 6802  32 30" xmlns="http://www.w3.org/2000/svg">
  <path d="M 2328 6939  A 3 3 0 0 1 2331 6942 A 3 3 0 0 1 2328 6945 L 2328 7392  A 5 5 0 0 0 2333 7397 L 2958 7397  A 5 5 0 0 0 2963 7392 L 2963 6822  A 5 5 0 0 1 2968 6817 L 3062 6817  " stroke-width="8" stroke="#dbb329" fill="none" />
  <path d="M 2330.75833493776 6934.32034396067  A 6.5 6.5 0 0 0 2324.25833493776 6940.82034396067 A 6.5 6.5 0 0 0 2330.75833493776 6947.32034396067 A 6.5 6.5 0 0 0 2337.25833493776 6940.82034396067 A 6.5 6.5 0 0 0 2330.75833493776 6934.32034396067 Z M 3058 6832.4  L 3074 6817  L 3058 6801.6  L 3058 6832.4  Z " fill-rule="nonzero" fill="#dbb329" stroke="none" />
</svg>