<?xml version="1.0" encoding="utf-8"?>
<svg version="1.1" xmlns:xlink="http://www.w3.org/1999/xlink" width="16px" height="438px" preserveAspectRatio="xMidYMin meet" viewBox="2322 5799  14 438" xmlns="http://www.w3.org/2000/svg">
  <path d="M 2329 5803  A 3 3 0 0 1 2332 5806 A 3 3 0 0 1 2329 5809 L 2329 6224  A 5 5 0 0 0 2334 6229 L 2978 6229  A 5 5 0 0 0 2983 6224 L 2983 5401  A 5 5 0 0 1 2988 5396 L 3097 5396  " stroke-width="8" stroke="#dbb329" fill="none" />
  <path d="M 2331.22053055959 5797.48276326775  A 6.5 6.5 0 0 0 2324.72053055959 5803.98276326775 A 6.5 6.5 0 0 0 2331.22053055959 5810.48276326775 A 6.5 6.5 0 0 0 2337.72053055959 5803.98276326775 A 6.5 6.5 0 0 0 2331.22053055959 5797.48276326775 Z M 3093 5411.4  L 3109 5396  L 3093 5380.6  L 3093 5411.4  Z " fill-rule="nonzero" fill="#dbb329" stroke="none" />
</svg>