<?xml version="1.0" encoding="utf-8"?>
<svg version="1.1" xmlns:xlink="http://www.w3.org/1999/xlink" width="32px" height="32px" preserveAspectRatio="xMinYMid meet" viewBox="12380 1897  32 30" xmlns="http://www.w3.org/2000/svg">
  <path d="M 12105 1901  L 12248 1901  A 5 5 0 0 1 12253 1906 L 12253 1907  A 5 5 0 0 0 12258 1912 L 12398 1912  " stroke-width="8" stroke="#dbb329" fill="none" />
  <path d="M 12103.5 1894.5  A 6.5 6.5 0 0 0 12097 1901 A 6.5 6.5 0 0 0 12103.5 1907.5 A 6.5 6.5 0 0 0 12110 1901 A 6.5 6.5 0 0 0 12103.5 1894.5 Z M 12394 1927.4  L 12410 1912  L 12394 1896.6  L 12394 1927.4  Z " fill-rule="nonzero" fill="#dbb329" stroke="none" />
</svg>