<?xml version="1.0" encoding="utf-8"?>
<svg version="1.1" xmlns:xlink="http://www.w3.org/1999/xlink" width="1316px" height="16px" preserveAspectRatio="xMinYMid meet" viewBox="4933 1373  1316 14" xmlns="http://www.w3.org/2000/svg">
  <path d="M 4941 1282  L 4941 1375  A 5 5 0 0 0 4946 1380 L 6236 1380  A 5 5 0 0 1 6241 1385 L 6241 1489  " stroke-width="8" stroke="#dbb329" fill="none" />
  <path d="M 4941 1274  A 6.5 6.5 0 0 0 4934.5 1280.5 A 6.5 6.5 0 0 0 4941 1287 A 6.5 6.5 0 0 0 4947.5 1280.5 A 6.5 6.5 0 0 0 4941 1274 Z M 6225.6 1485  L 6241 1501  L 6256.4 1485  L 6225.6 1485  Z " fill-rule="nonzero" fill="#dbb329" stroke="none" />
</svg>